<?xml version="1.0" encoding="UTF-8" standalone="no"?>
<svg
   width="256"
   height="256"
   title="Icon Name"
   viewBox="0 0 256 256"
   fill="none"
   id="id"
   version="1.1"
   sodipodi:docname="autohotkeyicon.svg"
   inkscape:version="1.4.2 (f4327f4, 2025-05-13)"
   xmlns:inkscape="http://www.inkscape.org/namespaces/inkscape"
   xmlns:sodipodi="http://sodipodi.sourceforge.net/DTD/sodipodi-0.dtd"
   xmlns="http://www.w3.org/2000/svg"
   xmlns:svg="http://www.w3.org/2000/svg">
  <defs
     id="defs1" />
  <sodipodi:namedview
     id="namedview1"
     pagecolor="#ffffff"
     bordercolor="#000000"
     borderopacity="0.25"
     inkscape:showpageshadow="2"
     inkscape:pageopacity="0.0"
     inkscape:pagecheckerboard="0"
     inkscape:deskcolor="#d1d1d1"
     showgrid="false"
     inkscape:zoom="3.1523438"
     inkscape:cx="128"
     inkscape:cy="128"
     inkscape:window-width="2560"
     inkscape:window-height="1009"
     inkscape:window-x="-8"
     inkscape:window-y="-8"
     inkscape:window-maximized="1"
     inkscape:current-layer="id" />
  <style
     id="style1">
#id {
    rect {fill: #15191C}

    @media (prefers-color-scheme: light) {
        rect {fill: #F4F2ED}
    }
}
</style>
  <rect
     width="256"
     height="256"
     rx="25"
     fill="#15191C"
     id="rect1"
     style="fill:#448e3a;fill-opacity:1" />
  <g
     id="g1"
     style="display:inline"
     transform="matrix(18.89764,0,0,17.135555,-27.000007,-17.337822)">
    <path
       id="left"
       style="display:inline;fill:#8cf287;stroke-width:0.293683"
       d="m 4.2333333,2.660819 c 0.7328958,0 1.3229166,-0.1667343 1.3229166,0.612115 v 9.442052 c 0,0.778849 -0.5900208,1.5875 -1.3229166,1.5875 -0.7328958,0 -1.3229166,0.166734 -1.3229166,-0.612115 V 4.2483189 c 0,-0.7788491 0.5900208,-1.5874999 1.3229166,-1.5874999 z"
       sodipodi:nodetypes="sssssss" />
    <path
       id="right"
       style="display:inline;fill:#8cf287;stroke-width:0.293683"
       d="m 12.170833,2.660819 c 0.732896,0 1.322916,-0.1667342 1.322916,0.612115 v 9.442052 c 0,0.778849 -0.59002,1.5875 -1.322916,1.5875 -0.732896,0 -1.322917,0.166734 -1.322917,-0.612115 V 4.2483189 c 0,-0.7788492 0.590021,-1.5874999 1.322917,-1.5874999 z"
       sodipodi:nodetypes="sssssss" />
    <path
       id="middle"
       style="display:inline;fill:#8cf287;stroke-width:0.283219"
       d="M 5.2916667,7.6879025 11.1125,6.8941523 V 9.5399855 L 5.2916666,10.333736 Z"
       sodipodi:nodetypes="ccccc" />
  </g>
</svg>
